<mxfile host="app.diagrams.net" modified="2024-04-09T16:24:27.118Z" agent="Mozilla/5.0 (Windows NT 10.0; Win64; x64) AppleWebKit/537.36 (KHTML, like Gecko) Chrome/123.0.0.0 Safari/537.36" etag="2vvOjd8xpqqHnmBDBm-E" version="24.2.1" type="device">
  <diagram id="wFE0QG_FPsp0jaGvCLVb" name="Page-1">
    <mxGraphModel dx="1050" dy="557" grid="1" gridSize="10" guides="1" tooltips="1" connect="1" arrows="1" fold="1" page="1" pageScale="1" pageWidth="850" pageHeight="1100" math="0" shadow="0">
      <root>
        <mxCell id="0" />
        <mxCell id="1" parent="0" />
        <mxCell id="fKekI65QdIiJVIKk77qj-1" value="Invoicing System" style="swimlane;whiteSpace=wrap;html=1;" parent="1" vertex="1">
          <mxGeometry x="150" y="10" width="490" height="530" as="geometry" />
        </mxCell>
        <mxCell id="fKekI65QdIiJVIKk77qj-7" value="View Invoice" style="ellipse;whiteSpace=wrap;html=1;" parent="fKekI65QdIiJVIKk77qj-1" vertex="1">
          <mxGeometry x="195" y="160" width="100" height="60" as="geometry" />
        </mxCell>
        <mxCell id="fKekI65QdIiJVIKk77qj-8" value="Update Invoice" style="ellipse;whiteSpace=wrap;html=1;" parent="fKekI65QdIiJVIKk77qj-1" vertex="1">
          <mxGeometry x="270" y="220" width="120" height="60" as="geometry" />
        </mxCell>
        <mxCell id="fKekI65QdIiJVIKk77qj-12" value="Make Payment" style="ellipse;whiteSpace=wrap;html=1;" parent="fKekI65QdIiJVIKk77qj-1" vertex="1">
          <mxGeometry x="180" y="350" width="120" height="80" as="geometry" />
        </mxCell>
        <mxCell id="fKekI65QdIiJVIKk77qj-22" value="Create Customer Invoice" style="ellipse;whiteSpace=wrap;html=1;" parent="fKekI65QdIiJVIKk77qj-1" vertex="1">
          <mxGeometry x="10" y="30" width="120" height="60" as="geometry" />
        </mxCell>
        <mxCell id="fKekI65QdIiJVIKk77qj-23" value="Create Invoice Payment Schedule" style="ellipse;whiteSpace=wrap;html=1;" parent="fKekI65QdIiJVIKk77qj-1" vertex="1">
          <mxGeometry x="215" y="40" width="120" height="50" as="geometry" />
        </mxCell>
        <mxCell id="fKekI65QdIiJVIKk77qj-25" value="" style="endArrow=openThin;dashed=1;html=1;dashPattern=1 3;strokeWidth=2;rounded=0;entryX=1;entryY=0.5;entryDx=0;entryDy=0;exitX=0;exitY=0.5;exitDx=0;exitDy=0;endFill=0;" parent="fKekI65QdIiJVIKk77qj-1" source="fKekI65QdIiJVIKk77qj-23" target="fKekI65QdIiJVIKk77qj-22" edge="1">
          <mxGeometry width="50" height="50" relative="1" as="geometry">
            <mxPoint x="210" y="43" as="sourcePoint" />
            <mxPoint x="320" y="80" as="targetPoint" />
          </mxGeometry>
        </mxCell>
        <mxCell id="fKekI65QdIiJVIKk77qj-26" value="extends" style="edgeLabel;html=1;align=center;verticalAlign=middle;resizable=0;points=[];" parent="fKekI65QdIiJVIKk77qj-25" vertex="1" connectable="0">
          <mxGeometry x="-0.097" y="-2" relative="1" as="geometry">
            <mxPoint as="offset" />
          </mxGeometry>
        </mxCell>
        <mxCell id="fKekI65QdIiJVIKk77qj-35" value="Generate Notes" style="ellipse;whiteSpace=wrap;html=1;" parent="fKekI65QdIiJVIKk77qj-1" vertex="1">
          <mxGeometry x="95" y="80" width="120" height="60" as="geometry" />
        </mxCell>
        <mxCell id="fKekI65QdIiJVIKk77qj-36" value="Edit Notes" style="ellipse;whiteSpace=wrap;html=1;" parent="fKekI65QdIiJVIKk77qj-1" vertex="1">
          <mxGeometry x="275" y="110" width="120" height="50" as="geometry" />
        </mxCell>
        <mxCell id="fKekI65QdIiJVIKk77qj-37" value="Delete Notes" style="ellipse;whiteSpace=wrap;html=1;" parent="fKekI65QdIiJVIKk77qj-1" vertex="1">
          <mxGeometry x="10" y="250" width="120" height="60" as="geometry" />
        </mxCell>
        <mxCell id="fKekI65QdIiJVIKk77qj-33" value="Print Invoice" style="ellipse;whiteSpace=wrap;html=1;" parent="fKekI65QdIiJVIKk77qj-1" vertex="1">
          <mxGeometry x="20" y="400" width="120" height="80" as="geometry" />
        </mxCell>
        <mxCell id="fKekI65QdIiJVIKk77qj-9" value="Delete Invoice" style="ellipse;whiteSpace=wrap;html=1;" parent="fKekI65QdIiJVIKk77qj-1" vertex="1">
          <mxGeometry x="140" y="260" width="120" height="60" as="geometry" />
        </mxCell>
        <mxCell id="fKekI65QdIiJVIKk77qj-42" value="View Invoice" style="ellipse;whiteSpace=wrap;html=1;" parent="fKekI65QdIiJVIKk77qj-1" vertex="1">
          <mxGeometry x="20" y="320" width="120" height="60" as="geometry" />
        </mxCell>
        <mxCell id="fKekI65QdIiJVIKk77qj-3" value="Customer" style="shape=umlActor;verticalLabelPosition=bottom;verticalAlign=top;html=1;outlineConnect=0;" parent="1" vertex="1">
          <mxGeometry x="50" y="370" width="30" height="60" as="geometry" />
        </mxCell>
        <mxCell id="fKekI65QdIiJVIKk77qj-6" value="Employee" style="shape=umlActor;verticalLabelPosition=bottom;verticalAlign=top;html=1;outlineConnect=0;" parent="1" vertex="1">
          <mxGeometry x="50" y="160" width="30" height="60" as="geometry" />
        </mxCell>
        <mxCell id="fKekI65QdIiJVIKk77qj-17" value="" style="endArrow=none;html=1;rounded=0;exitX=0;exitY=0.5;exitDx=0;exitDy=0;" parent="1" source="fKekI65QdIiJVIKk77qj-7" edge="1">
          <mxGeometry width="50" height="50" relative="1" as="geometry">
            <mxPoint x="480" y="180" as="sourcePoint" />
            <mxPoint x="80" y="180" as="targetPoint" />
          </mxGeometry>
        </mxCell>
        <mxCell id="fKekI65QdIiJVIKk77qj-18" value="" style="endArrow=none;html=1;rounded=0;entryX=0;entryY=0.5;entryDx=0;entryDy=0;" parent="1" target="fKekI65QdIiJVIKk77qj-8" edge="1">
          <mxGeometry width="50" height="50" relative="1" as="geometry">
            <mxPoint x="80" y="180" as="sourcePoint" />
            <mxPoint x="160" y="170" as="targetPoint" />
          </mxGeometry>
        </mxCell>
        <mxCell id="fKekI65QdIiJVIKk77qj-19" value="" style="endArrow=none;html=1;rounded=0;entryX=0;entryY=0;entryDx=0;entryDy=0;exitX=1;exitY=0.3333333333333333;exitDx=0;exitDy=0;exitPerimeter=0;" parent="1" source="fKekI65QdIiJVIKk77qj-6" target="fKekI65QdIiJVIKk77qj-9" edge="1">
          <mxGeometry width="50" height="50" relative="1" as="geometry">
            <mxPoint x="110" y="220" as="sourcePoint" />
            <mxPoint x="180" y="320" as="targetPoint" />
          </mxGeometry>
        </mxCell>
        <mxCell id="fKekI65QdIiJVIKk77qj-21" value="" style="endArrow=none;html=1;rounded=0;" parent="1" source="fKekI65QdIiJVIKk77qj-12" edge="1">
          <mxGeometry width="50" height="50" relative="1" as="geometry">
            <mxPoint x="600" y="400" as="sourcePoint" />
            <mxPoint x="80" y="390" as="targetPoint" />
          </mxGeometry>
        </mxCell>
        <mxCell id="fKekI65QdIiJVIKk77qj-32" value="" style="endArrow=none;html=1;rounded=0;entryX=0;entryY=0.5;entryDx=0;entryDy=0;exitX=1;exitY=0.3333333333333333;exitDx=0;exitDy=0;exitPerimeter=0;" parent="1" source="fKekI65QdIiJVIKk77qj-6" target="fKekI65QdIiJVIKk77qj-22" edge="1">
          <mxGeometry width="50" height="50" relative="1" as="geometry">
            <mxPoint x="720" y="220" as="sourcePoint" />
            <mxPoint x="740" y="140" as="targetPoint" />
          </mxGeometry>
        </mxCell>
        <mxCell id="fKekI65QdIiJVIKk77qj-34" value="" style="endArrow=none;html=1;rounded=0;exitX=0;exitY=0;exitDx=0;exitDy=0;entryX=1;entryY=0.3333333333333333;entryDx=0;entryDy=0;entryPerimeter=0;" parent="1" source="fKekI65QdIiJVIKk77qj-33" target="fKekI65QdIiJVIKk77qj-3" edge="1">
          <mxGeometry width="50" height="50" relative="1" as="geometry">
            <mxPoint x="60" y="400" as="sourcePoint" />
            <mxPoint x="110" y="220" as="targetPoint" />
          </mxGeometry>
        </mxCell>
        <mxCell id="fKekI65QdIiJVIKk77qj-40" value="" style="endArrow=none;html=1;rounded=0;entryX=1;entryY=0.3333333333333333;entryDx=0;entryDy=0;entryPerimeter=0;" parent="1" source="fKekI65QdIiJVIKk77qj-36" target="fKekI65QdIiJVIKk77qj-6" edge="1">
          <mxGeometry width="50" height="50" relative="1" as="geometry">
            <mxPoint x="400" y="310" as="sourcePoint" />
            <mxPoint x="720" y="220" as="targetPoint" />
          </mxGeometry>
        </mxCell>
        <mxCell id="fKekI65QdIiJVIKk77qj-43" value="" style="endArrow=none;html=1;rounded=0;entryX=0;entryY=0.5;entryDx=0;entryDy=0;" parent="1" target="fKekI65QdIiJVIKk77qj-42" edge="1">
          <mxGeometry width="50" height="50" relative="1" as="geometry">
            <mxPoint x="80" y="390" as="sourcePoint" />
            <mxPoint x="450" y="230" as="targetPoint" />
          </mxGeometry>
        </mxCell>
        <mxCell id="fKekI65QdIiJVIKk77qj-44" value="" style="endArrow=none;html=1;rounded=0;entryX=0;entryY=0.5;entryDx=0;entryDy=0;exitX=1;exitY=0.3333333333333333;exitDx=0;exitDy=0;exitPerimeter=0;" parent="1" source="fKekI65QdIiJVIKk77qj-6" target="fKekI65QdIiJVIKk77qj-35" edge="1">
          <mxGeometry width="50" height="50" relative="1" as="geometry">
            <mxPoint x="40" y="330" as="sourcePoint" />
            <mxPoint x="90" y="280" as="targetPoint" />
          </mxGeometry>
        </mxCell>
        <mxCell id="fKekI65QdIiJVIKk77qj-45" value="" style="endArrow=none;html=1;rounded=0;entryX=0.003;entryY=0.353;entryDx=0;entryDy=0;entryPerimeter=0;" parent="1" target="fKekI65QdIiJVIKk77qj-37" edge="1">
          <mxGeometry width="50" height="50" relative="1" as="geometry">
            <mxPoint x="80" y="180" as="sourcePoint" />
            <mxPoint x="140" y="270" as="targetPoint" />
          </mxGeometry>
        </mxCell>
      </root>
    </mxGraphModel>
  </diagram>
</mxfile>
